<svg height="50" viewBox="0 0 50 50" width="50" xmlns="http://www.w3.org/2000/svg"><path d="m18.5 2c-4.68248 0-8.5 3.8175204-8.5 8.5 0 3.300292 1.949927 6.092855 4.708984 7.5-2.759057 1.407145-4.708984 4.199708-4.708984 7.5s1.949927 6.092855 4.708984 7.5c-2.759057 1.407145-4.708984 4.199708-4.708984 7.5 0 4.68248 3.81752 8.5 8.5 8.5s8.5-3.81752 8.5-8.5v-7.5-3.34375c1.341367 2.545467 3.932066 4.34375 7 4.34375 4.406436 0 8-3.593568 8-8 0-3.621754-2.473827-6.571315-5.785156-7.550781 3.338714-1.147512 5.785156-4.228995 5.785156-7.949219 0-4.6824796-3.81752-8.5-8.5-8.5h-7.5zm0 2h6.5v13h-6.5c-3.60152 0-6.5-2.89848-6.5-6.5 0-3.6015204 2.89848-6.5 6.5-6.5zm8.5 0h6.5c3.60152 0 6.5 2.8984796 6.5 6.5 0 3.60152-2.89848 6.5-6.5 6.5h-6.5zm-8.5 15h6.5v13h-6.5c-3.60152 0-6.5-2.89848-6.5-6.5s2.89848-6.5 6.5-6.5zm8.5 0h3.34375c-1.434911.756146-2.587604 1.908838-3.34375 3.34375zm7 1c3.325556 0 6 2.674446 6 6s-2.674444 6-6 6-6-2.674446-6-6 2.674444-6 6-6zm-15.5 14h6.5v6.5c0 3.60152-2.89848 6.5-6.5 6.5s-6.5-2.89848-6.5-6.5 2.89848-6.5 6.5-6.5z"/></svg>