<svg fill="none" height="50" viewBox="0 0 50 50" width="50" xmlns="http://www.w3.org/2000/svg"><path d="m15.9586 47.651c.8787.2918 1.7573-.292 1.7573-1.4593v-4.6694s-1.1715.2919-2.6361.2919c-4.1005 0-5.85792-3.502-6.15076-5.5449-.29296-1.1673-.87877-2.0429-1.75742-2.9183-.87872-.2919-1.17162-.2919-1.17162-.5837 0-.5836.8787-.5836 1.17162-.5836 1.75742 0 3.22188 2.0427 3.80768 2.9183 1.4645 2.3347 3.2219 2.9183 4.1005 2.9183 1.1717 0 2.0504-.2918 2.6361-.5836.293-2.0429 1.1716-4.0857 2.9291-5.253-6.7368-1.4593-11.71596-5.2532-11.71596-11.6735 0-3.2102 1.46446-6.4205 3.51476-8.7552-.2929-.5836-.5858-2.04273-.5858-4.08562 0-1.16735 0-2.91836.8787-4.66938 0 0 4.1006 0 8.2012 3.79387 1.4645-.58367 3.5148-.8755 5.565-.8755 2.0504 0 4.1007.29183 5.8581.8755 3.8077-3.79387 8.2011-3.79387 8.2011-3.79387.5858 1.75102.5858 3.50203.5858 4.66938 0 2.33472-.2929 3.50202-.5858 4.08562 2.0504 2.3347 3.5148 5.2532 3.5148 8.7552 0 6.4203-4.9793 10.2142-11.7159 11.6735 1.7573 1.4591 2.9289 4.0856 2.9289 6.7121v7.5878c0 .8754.8788 1.751 2.0503 1.4592" stroke="#000" stroke-width="2"/></svg>