<svg height="50" viewBox="0 0 50 50" width="50" xmlns="http://www.w3.org/2000/svg"><path d="m8 3.0117188c-1.6873907 0-3.1645211.479914-4.2460938 1.3535156-1.0815725.8736016-1.7421874 2.1679836-1.7421874 3.5820312 0 2.7435704 2.456989 4.8672014 5.7050781 4.9941404a.98809878.98809878 0 0 0 .2832031.046875c1.753566 0 3.246191-.514014 4.3125-1.423828s1.675781-2.2215177 1.675781-3.6171874a.98809878.98809878 0 0 0 -.001953-.0546875c-.154021-2.7608947-2.611547-4.8808594-5.986328-4.8808593zm0 1.9765624c2.60907 0 3.895883 1.2810636 4.005859 2.984375-.0071.8322773-.3293 1.5392429-.974609 2.0898438-.652441.556686-1.659816.949219-3.03125.949219-2.6019458 0-4.0117187-1.4125486-4.0117188-3.0644534 0-.8259524.3393851-1.5050235 1.0078126-2.0449218.6684273-.5398984 1.6912969-.9140625 3.0039062-.9140626zm-5 10.0117188a1.0001 1.0001 0 0 0 -1 1v29a1.0001 1.0001 0 0 0 1 1h10a1.0001 1.0001 0 0 0 1-1v-9.335938-19.664062a1.0001 1.0001 0 0 0 -1-1zm15 0a1.0001 1.0001 0 0 0 -1 1v29a1.0001 1.0001 0 0 0 1 1h10a1.0001 1.0001 0 0 0 1-1v-16-.25-.25c0-1.944423 1.555577-3.5 3.5-3.5s3.5 1.555577 3.5 3.5v16.5a1.0001 1.0001 0 0 0 1 1h10a1.0001 1.0001 0 0 0 1-1v-17c0-4.126524-1.212112-7.395546-3.255859-9.625s-4.894929-3.375-7.957032-3.375c-3.904237 0-6.265478 1.426076-7.787109 2.601562v-1.601562a1.0001 1.0001 0 0 0 -1-1zm-14 2h8v18.664062 8.335938h-8zm15 0h8v2.638672a1.0001 1.0001 0 0 0 1.744141.667969s2.9657-3.306641 8.042968-3.306641c2.572898 0 4.828419.922268 6.482422 2.726562 1.654003 1.804296 2.730469 4.534962 2.730469 8.273438v16h-8v-15.5a1.0001 1.0001 0 0 0 -.083984-.410156c-.221955-2.825734-2.535686-5.089844-5.416016-5.089844-3.025577 0-5.5 2.474423-5.5 5.5v.25.25 15h-8z"/></svg>